<?xml version="1.0" standalone="no"?>
<!DOCTYPE svg PUBLIC "-//W3C//DTD SVG 20010904//EN"
 "http://www.w3.org/TR/2001/REC-SVG-20010904/DTD/svg10.dtd">
<svg version="1.0" xmlns="http://www.w3.org/2000/svg"
 width="512.000000pt" height="512.000000pt" viewBox="0 0 512.000000 512.000000"
 preserveAspectRatio="xMidYMid meet">
<metadata>
Created by potrace 1.11, written by Peter Selinger 2001-2013
</metadata>
<g transform="translate(0.000000,512.000000) scale(0.100000,-0.100000)"
fill="#000000" stroke="none">
<path d="M3788 4264 c-2 -1 -24 -5 -48 -8 -25 -3 -88 -11 -140 -17 -52 -7
-104 -13 -115 -14 -50 -5 -162 -17 -185 -20 -27 -4 -87 -12 -160 -20 -54 -6
-113 -13 -160 -20 -19 -3 -60 -7 -90 -10 -30 -3 -71 -7 -90 -10 -62 -8 -114
-14 -170 -20 -30 -3 -66 -7 -80 -10 -14 -2 -53 -7 -87 -10 -34 -3 -71 -8 -82
-10 -11 -2 -51 -7 -88 -10 -37 -4 -76 -9 -85 -10 -9 -2 -48 -7 -85 -10 -37 -4
-77 -9 -88 -11 -11 -2 -33 -7 -50 -9 -143 -25 -324 -218 -350 -373 -8 -47 1
-45 -95 -28 -206 36 -239 37 -345 12 -23 -5 -108 -47 -134 -65 l-27 -20 -150
25 c-82 14 -160 27 -174 29 -14 2 -38 5 -55 8 -64 11 -120 21 -130 22 -17 2
-130 19 -137 21 -5 1 -11 3 -15 4 -5 1 -11 2 -14 2 -3 -1 -84 12 -180 28 -96
17 -175 30 -176 30 -2 0 -3 -380 -3 -844 0 -796 1 -845 18 -850 28 -8 75 -16
112 -20 49 -6 107 -15 160 -26 52 -10 105 -19 157 -26 20 -2 50 -7 67 -10 17
-3 78 -13 136 -23 l105 -17 70 -70 c96 -95 149 -120 326 -150 79 -13 164 -27
189 -30 25 -3 47 -8 49 -9 5 -5 8 -55 15 -225 4 -85 12 -180 18 -210 7 -30 12
-58 12 -61 2 -17 81 -131 111 -161 l35 -34 6 -129 c3 -72 7 -136 9 -142 3 -7
0 -13 -6 -13 -6 0 -7 -5 -2 -12 8 -14 8 -9 17 -193 3 -72 9 -182 12 -245 4
-63 7 -142 8 -175 l2 -60 1202 -3 1203 -2 -6 107 c-3 60 -8 158 -10 218 -3 61
-7 157 -10 215 -11 199 -14 265 -20 405 l-7 140 32 40 c44 55 78 124 94 192
13 59 13 77 1 333 -4 80 -8 179 -10 220 -11 225 -16 330 -20 378 l-4 53 37 15
c79 31 127 61 182 116 63 63 50 59 263 83 81 9 132 15 167 20 19 3 58 7 85 10
28 3 61 7 74 10 13 2 54 7 90 10 36 3 75 8 86 10 11 2 30 4 43 4 l22 1 0 841
0 841 -62 -6 c-35 -4 -84 -9 -111 -11 -26 -3 -60 -7 -75 -9 -15 -3 -52 -7 -82
-11 -66 -7 -123 -14 -170 -20 -19 -2 -60 -7 -90 -10 -30 -4 -66 -8 -80 -10
-32 -4 -110 -13 -180 -20 -30 -4 -70 -8 -88 -11 -26 -4 -41 1 -68 21 -40 30
-124 69 -174 80 -36 8 -147 15 -152 9z"/>
</g>
</svg>
